<svg xmlns="http://www.w3.org/2000/svg" xmlns:xlink="http://www.w3.org/1999/xlink" width="256" zoomAndPan="magnify" viewBox="0 0 192 191.999996" height="256" preserveAspectRatio="xMidYMid meet" version="1.0"><defs><g/></defs><g fill="#ff5757" fill-opacity="1"><g transform="translate(0.759375, 156.656727)"><g><path d="M 93.171875 -86.40625 C 89.796875 -86.40625 84.597656 -86.675781 77.578125 -87.21875 C 70.734375 -87.726562 65.535156 -87.957031 61.984375 -87.90625 L 57.125 -87.90625 C 57.257812 -81.613281 57.875 -71.398438 58.96875 -57.265625 C 59.976562 -44.078125 60.484375 -33.835938 60.484375 -26.546875 C 60.484375 -24.953125 60.640625 -22.535156 60.953125 -19.296875 C 61.273438 -16.054688 61.4375 -13.613281 61.4375 -11.96875 C 61.4375 -8.863281 60.929688 -6.195312 59.921875 -3.96875 C 58.648438 -0.957031 56.671875 0.546875 53.984375 0.546875 C 52.148438 0.546875 50.503906 -0.0859375 49.046875 -1.359375 C 47.585938 -2.640625 46.859375 -4.285156 46.859375 -6.296875 C 46.859375 -6.972656 46.972656 -7.992188 47.203125 -9.359375 C 47.429688 -10.734375 47.546875 -11.765625 47.546875 -12.453125 C 47.546875 -14.679688 47.394531 -18.03125 47.09375 -22.5 C 46.800781 -26.976562 46.65625 -30.359375 46.65625 -32.640625 C 46.65625 -39.160156 46.128906 -48.328125 45.078125 -60.140625 C 43.984375 -72.910156 43.367188 -82.078125 43.234375 -87.640625 L 37.015625 -87.5625 C 27.023438 -87.5625 19.179688 -88.289062 13.484375 -89.75 C 9.785156 -90.707031 7.9375 -92.96875 7.9375 -96.53125 C 7.9375 -98.394531 8.53125 -100.035156 9.71875 -101.453125 C 11.082031 -103.046875 12.835938 -103.773438 14.984375 -103.640625 C 16.578125 -103.554688 20.222656 -103.144531 25.921875 -102.40625 C 30.484375 -101.863281 34.179688 -101.59375 37.015625 -101.59375 C 39.742188 -101.59375 43.890625 -101.648438 49.453125 -101.765625 C 55.023438 -101.878906 59.175781 -101.9375 61.90625 -101.9375 C 65.425781 -101.9375 70.640625 -101.6875 77.546875 -101.1875 C 84.453125 -100.6875 89.660156 -100.4375 93.171875 -100.4375 C 95.140625 -100.4375 96.785156 -99.757812 98.109375 -98.40625 C 99.429688 -97.0625 100.09375 -95.390625 100.09375 -93.390625 C 100.09375 -91.421875 99.429688 -89.765625 98.109375 -88.421875 C 96.785156 -87.078125 95.140625 -86.40625 93.171875 -86.40625 Z M 93.171875 -86.40625 "/></g></g></g><g fill="#ff5757" fill-opacity="1"><g transform="translate(95.989959, 156.656727)"><g><path d="M 93.171875 -86.40625 C 89.796875 -86.40625 84.597656 -86.675781 77.578125 -87.21875 C 70.734375 -87.726562 65.535156 -87.957031 61.984375 -87.90625 L 57.125 -87.90625 C 57.257812 -81.613281 57.875 -71.398438 58.96875 -57.265625 C 59.976562 -44.078125 60.484375 -33.835938 60.484375 -26.546875 C 60.484375 -24.953125 60.640625 -22.535156 60.953125 -19.296875 C 61.273438 -16.054688 61.4375 -13.613281 61.4375 -11.96875 C 61.4375 -8.863281 60.929688 -6.195312 59.921875 -3.96875 C 58.648438 -0.957031 56.671875 0.546875 53.984375 0.546875 C 52.148438 0.546875 50.503906 -0.0859375 49.046875 -1.359375 C 47.585938 -2.640625 46.859375 -4.285156 46.859375 -6.296875 C 46.859375 -6.972656 46.972656 -7.992188 47.203125 -9.359375 C 47.429688 -10.734375 47.546875 -11.765625 47.546875 -12.453125 C 47.546875 -14.679688 47.394531 -18.03125 47.09375 -22.5 C 46.800781 -26.976562 46.65625 -30.359375 46.65625 -32.640625 C 46.65625 -39.160156 46.128906 -48.328125 45.078125 -60.140625 C 43.984375 -72.910156 43.367188 -82.078125 43.234375 -87.640625 L 37.015625 -87.5625 C 27.023438 -87.5625 19.179688 -88.289062 13.484375 -89.75 C 9.785156 -90.707031 7.9375 -92.96875 7.9375 -96.53125 C 7.9375 -98.394531 8.53125 -100.035156 9.71875 -101.453125 C 11.082031 -103.046875 12.835938 -103.773438 14.984375 -103.640625 C 16.578125 -103.554688 20.222656 -103.144531 25.921875 -102.40625 C 30.484375 -101.863281 34.179688 -101.59375 37.015625 -101.59375 C 39.742188 -101.59375 43.890625 -101.648438 49.453125 -101.765625 C 55.023438 -101.878906 59.175781 -101.9375 61.90625 -101.9375 C 65.425781 -101.9375 70.640625 -101.6875 77.546875 -101.1875 C 84.453125 -100.6875 89.660156 -100.4375 93.171875 -100.4375 C 95.140625 -100.4375 96.785156 -99.757812 98.109375 -98.40625 C 99.429688 -97.0625 100.09375 -95.390625 100.09375 -93.390625 C 100.09375 -91.421875 99.429688 -89.765625 98.109375 -88.421875 C 96.785156 -87.078125 95.140625 -86.40625 93.171875 -86.40625 Z M 93.171875 -86.40625 "/></g></g></g></svg>